# xmcd
#
# Track frame offsets:
#	150
#	30678
#	52044
#	72683
#	95175
#	109466
#	121239
#	143252
#	163022
#	188766
#	207437
#
# Disc length: 3053 seconds
# Revision: 0
# Processed by: cddbd v1.5.2PL0 Copyright (c) Steve Scherf et al.
# Submitted via: dBpowerAMP V12.0
#
DISCID=a60beb0b
DTITLE=Anders Osborne - Peace
DYEAR=2013
DGENRE=Blues
TTITLE0=Peace
TTITLE1=47
TTITLE2=Let it Go
TTITLE3=Windows
TTITLE4=Five Bullets
TTITLE5=Brush Up Against Me
TTITLE6=Sentimental Times
TTITLE7=Dream Girl
TTITLE8=Sarah Anne
TTITLE9=I'm Ready
TTITLE10=My Son
EXTD=
EXTT0=
EXTT1=
EXTT2=
EXTT3=
EXTT4=
EXTT5=
EXTT6=
EXTT7=
EXTT8=
EXTT9=
EXTT10=
PLAYORDER=
